<?xml version="1.0" encoding="UTF-8" standalone="no"?>
<svg width="48" height="48" viewBox="0 0 48 48" fill="none" xmlns="http://www.w3.org/2000/svg">
  <!-- Sun circle -->
  <circle cx="24" cy="24" r="20" fill="#FCA546"/>
  
  <!-- Sun rays -->
  <g stroke="#FCA546" stroke-width="4" stroke-linecap="round">
    <!-- Top ray -->
    <line x1="24" y1="0" x2="24" y2="8"/>
    <!-- Bottom ray -->
    <line x1="24" y1="40" x2="24" y2="48"/>
    <!-- Left ray -->
    <line x1="0" y1="24" x2="8" y2="24"/>
    <!-- Right ray -->
    <line x1="40" y1="24" x2="48" y2="24"/>
    <!-- Diagonal rays -->
    <line x1="8" y1="8" x2="13" y2="13"/>
    <line x1="35" y1="35" x2="40" y2="40"/>
    <line x1="8" y1="40" x2="13" y2="35"/>
    <line x1="35" y1="13" x2="40" y2="8"/>
  </g>
  
  <!-- Cloud -->
  <path d="M12 32C8.68629 32 6 29.3137 6 26C6 22.6863 8.68629 20 12 20C12.3675 20 12.7271 20.0303 13.0763 20.0889C14.3521 16.6146 17.7029 14 21.6667 14C26.2690 14 30 17.7310 30 22.3333C30 22.7710 29.9669 23.2005 29.9033 23.6192C30.5939 23.2195 31.3913 23 32.25 23C34.8734 23 37 25.1266 37 27.75C37 30.3734 34.8734 32.5 32.25 32.5" 
        fill="#ffffff" stroke="#2563EB" stroke-width="3" stroke-linecap="round"/>
</svg>